# xmcd
#
# Track frame offsets:
#	150
#	8298
#	19599
#	32658
#	42109
#	54807
#	62568
#	80132
#	91788
#	104888
#	123363
#	138854
#	153170
#	172258
#
# Disc length: 2542 seconds
#
# Revision: 1
# Processed by: cddbd v1.4PL0 Copyright (c) Steve Scherf et al.
# Submitted via: CDmax 1.8
#
DISCID=a309ec0e
DTITLE=Wayne Hancock - A-Town Blues
DYEAR=2001
DGENRE=Honky Tonk
TTITLE0=A-Town Blues
TTITLE1=Man of the Road
TTITLE2=Sands of Time
TTITLE3=Miller, Jack and Mad Dog
TTITLE4=Track 49
TTITLE5=Life's Lonesome Road
TTITLE6=Cow Cow Boogie
TTITLE7=Route 23
TTITLE8=Happy Birthday Julie
TTITLE9=California Blues
TTITLE10=Every Time
TTITLE11=Viper
TTITLE12=We Three
TTITLE13=Railroad Blues
EXTD=
EXTT0=
EXTT1=
EXTT2=
EXTT3=
EXTT4=
EXTT5=
EXTT6=
EXTT7=
EXTT8=
EXTT9=
EXTT10=
EXTT11=
EXTT12=
EXTT13=
PLAYORDER=
